<svg width="46" height="40" viewBox="0 0 46 40" fill="none" xmlns="http://www.w3.org/2000/svg">
<path d="M45.7923 27.4136C45.7923 34.3333 40.1828 39.9429 33.263 39.9429L14.4692 39.9429C12.547 39.9429 10.9888 38.3847 10.9888 36.4625L10.9888 12.7962C10.9888 8.95187 14.1052 5.83547 17.9495 5.83547L42.312 5.83547C44.2341 5.83547 45.7923 7.39367 45.7923 9.31581L45.7923 27.4136Z" fill="#E8F5E9"/>
<path d="M19.2834 14.1959C19.0662 14.1959 18.8896 14.0196 18.8896 13.8022V13.133C18.8896 12.9158 19.0659 12.7393 19.2834 12.7393C19.5006 12.7393 19.6771 12.9155 19.6771 13.133V13.8022C19.6771 14.0196 19.5006 14.1959 19.2834 14.1959Z" fill="#103E13"/>
<path d="M17.628 14.1959C17.4108 14.1959 17.2343 14.0196 17.2343 13.8022V13.133C17.2343 12.9158 17.4105 12.7393 17.628 12.7393C17.8452 12.7393 18.0217 12.9155 18.0217 13.133V13.8022C18.0215 14.0196 17.8455 14.1959 17.628 14.1959Z" fill="#103E13"/>
<path d="M15.9727 14.1959C15.7555 14.1959 15.579 14.0196 15.579 13.8022V13.133C15.579 12.9158 15.7553 12.7393 15.9727 12.7393C16.1899 12.7393 16.3665 12.9155 16.3665 13.133V13.8022C16.3665 14.0196 16.1902 14.1959 15.9727 14.1959Z" fill="#103E13"/>
<path d="M19.2834 16.9323C19.0662 16.9323 18.8896 16.756 18.8896 16.5385V15.8696C18.8896 15.6525 19.0659 15.4759 19.2834 15.4759C19.5006 15.4759 19.6771 15.6522 19.6771 15.8696V16.5385C19.6771 16.756 19.5006 16.9323 19.2834 16.9323Z" fill="#103E13"/>
<path d="M17.628 16.9323C17.4108 16.9323 17.2343 16.756 17.2343 16.5385V15.8696C17.2343 15.6525 17.4105 15.4759 17.628 15.4759C17.8452 15.4759 18.0217 15.6522 18.0217 15.8696V16.5385C18.0215 16.756 17.8455 16.9323 17.628 16.9323Z" fill="#103E13"/>
<path d="M15.9727 16.9323C15.7555 16.9323 15.579 16.756 15.579 16.5385V15.8696C15.579 15.6525 15.7553 15.4759 15.9727 15.4759C16.1899 15.4759 16.3665 15.6522 16.3665 15.8696V16.5385C16.3665 16.756 16.1902 16.9323 15.9727 16.9323Z" fill="#103E13"/>
<path d="M19.2834 19.6687C19.0662 19.6687 18.8896 19.4925 18.8896 19.275V18.6058C18.8896 18.3887 19.0659 18.2121 19.2834 18.2121C19.5006 18.2121 19.6771 18.3884 19.6771 18.6058V19.275C19.6771 19.4925 19.5006 19.6687 19.2834 19.6687Z" fill="#103E13"/>
<path d="M17.628 19.6687C17.4108 19.6687 17.2343 19.4925 17.2343 19.275V18.6058C17.2343 18.3887 17.4105 18.2121 17.628 18.2121C17.8452 18.2121 18.0217 18.3884 18.0217 18.6058V19.275C18.0215 19.4925 17.8455 19.6687 17.628 19.6687Z" fill="#103E13"/>
<path d="M15.9727 19.6687C15.7555 19.6687 15.579 19.4925 15.579 19.275V18.6058C15.579 18.3887 15.7553 18.2121 15.9727 18.2121C16.1899 18.2121 16.3665 18.3884 16.3665 18.6058V19.275C16.3665 19.4925 16.1902 19.6687 15.9727 19.6687Z" fill="#103E13"/>
<path d="M19.2834 22.4046C19.0662 22.4046 18.8896 22.2283 18.8896 22.0108V21.3417C18.8896 21.1245 19.0659 20.9479 19.2834 20.9479C19.5006 20.9479 19.6771 21.1242 19.6771 21.3417V22.0108C19.6771 22.2283 19.5006 22.4046 19.2834 22.4046Z" fill="#103E13"/>
<path d="M17.628 22.4046C17.4108 22.4046 17.2343 22.2283 17.2343 22.0108V21.3417C17.2343 21.1245 17.4105 20.9479 17.628 20.9479C17.8452 20.9479 18.0217 21.1242 18.0217 21.3417V22.0108C18.0215 22.2283 17.8455 22.4046 17.628 22.4046Z" fill="#103E13"/>
<path d="M15.9727 22.4046C15.7555 22.4046 15.579 22.2283 15.579 22.0108V21.3417C15.579 21.1245 15.7553 20.9479 15.9727 20.9479C16.1899 20.9479 16.3665 21.1242 16.3665 21.3417V22.0108C16.3665 22.2283 16.1902 22.4046 15.9727 22.4046Z" fill="#103E13"/>
<path d="M19.2834 25.1409C19.0662 25.1409 18.8896 24.9647 18.8896 24.7472V24.0783C18.8896 23.8611 19.0659 23.6846 19.2834 23.6846C19.5006 23.6846 19.6771 23.8609 19.6771 24.0783V24.7472C19.6771 24.9644 19.5006 25.1409 19.2834 25.1409Z" fill="#103E13"/>
<path d="M17.628 25.1409C17.4108 25.1409 17.2343 24.9647 17.2343 24.7472V24.0783C17.2343 23.8611 17.4105 23.6846 17.628 23.6846C17.8452 23.6846 18.0217 23.8609 18.0217 24.0783V24.7472C18.0215 24.9644 17.8455 25.1409 17.628 25.1409Z" fill="#103E13"/>
<path d="M15.9727 25.1409C15.7555 25.1409 15.579 24.9647 15.579 24.7472L15.5793 24.0783C15.5793 23.8611 15.7555 23.6846 15.973 23.6846C16.1902 23.6846 16.3668 23.8609 16.3668 24.0783V24.7472C16.3665 24.9644 16.1902 25.1409 15.9727 25.1409Z" fill="#103E13"/>
<path d="M4.72451 27.8641C4.72451 28.0813 4.90079 28.2579 5.11826 28.2579H29.0963C29.3135 28.2579 29.49 28.0816 29.49 27.8641C29.49 27.6469 29.3138 27.4704 29.0963 27.4704H28.3684V16.1653C28.3684 15.9481 28.1921 15.7716 27.9747 15.7716L21.546 15.7718V7.62147C21.546 7.48364 21.474 7.35623 21.3565 7.28484C21.2393 7.21317 21.0926 7.20878 20.9707 7.2722L13.6618 11.0776C13.5313 11.1454 13.4501 11.28 13.4501 11.4269V18.5461H6.37657C6.15938 18.5461 5.98282 18.7223 5.98282 18.9398V27.4704H5.11738C4.90019 27.4702 4.72418 27.6464 4.72418 27.8639L4.72451 27.8641ZM21.5461 21.7353H27.5813V27.4707L21.5461 27.4704V21.7353ZM21.5461 18.9991H27.5813V20.9481L21.5461 20.9478V18.9991ZM21.5461 16.5589H27.5813V18.2122H21.5461V16.5589ZM14.2371 11.666L20.7583 8.2705V27.4701H14.2371V11.666ZM8.71675 24.3256C8.71675 23.5084 9.3642 22.8434 10.1602 22.8434C10.9562 22.8434 11.6039 23.5081 11.6039 24.3256V27.4706H8.71675V24.3256ZM6.77029 19.3334H13.4499V27.4704H12.3914V24.3254C12.3914 23.0741 11.3909 22.056 10.1602 22.056C8.93009 22.056 7.92955 23.0739 7.92955 24.3254V27.4704H6.77029V19.3334Z" fill="#103E13"/>
</svg>
