<svg width="28" height="29" viewBox="0 0 28 29" fill="none" xmlns="http://www.w3.org/2000/svg">
<g clip-path="url(#clip0_211_2047)">
<path fill-rule="evenodd" clip-rule="evenodd" d="M6.97907 0.680054C10.8233 0.680054 13.9398 3.79646 13.9398 7.64075V0.680054H20.9005C24.7447 0.680054 27.8612 3.79646 27.8612 7.64075C27.8612 11.485 24.7447 14.6014 20.9005 14.6014C24.7447 14.6014 27.8612 17.7179 27.8612 21.5621C27.8612 23.471 27.0928 25.2004 25.8485 26.4579L25.8224 26.4841L25.7993 26.5071C24.5415 27.7532 22.8109 28.5228 20.9005 28.5228C19.003 28.5228 17.2829 27.7636 16.0273 26.5324C16.011 26.5164 15.9947 26.5003 15.9785 26.4841C15.9632 26.4689 15.9481 26.4536 15.933 26.4382C14.7001 25.1823 13.9398 23.461 13.9398 21.5621C13.9398 25.4064 10.8233 28.5228 6.97907 28.5228C3.13478 28.5228 0.0183716 25.4064 0.0183716 21.5621V14.6014H6.97907C3.13478 14.6014 0.0183716 11.485 0.0183716 7.64075C0.0183716 3.79646 3.13478 0.680054 6.97907 0.680054ZM12.5476 7.64075C12.5476 10.7162 10.0545 13.2093 6.97907 13.2093V2.07219C10.0545 2.07219 12.5476 4.56532 12.5476 7.64075ZM26.469 21.5621C26.469 18.4867 23.9759 15.9936 20.9005 15.9936C17.825 15.9936 15.3319 18.4867 15.3319 21.5621H26.469ZM1.41051 15.9936V21.5621C1.41051 24.6376 3.90364 27.1307 6.97907 27.1307C10.0545 27.1307 12.5476 24.6376 12.5476 21.5621V15.9936H1.41051ZM15.3319 13.2093V2.07219H20.9005C23.9759 2.07219 26.469 4.56532 26.469 7.64075C26.469 10.7162 23.9759 13.2093 20.9005 13.2093H15.3319Z" fill="#263238"/>
</g>
<defs>
<clipPath id="clip0_211_2047">
<rect width="27.8428" height="27.8428" fill="white" transform="translate(0.0183716 0.680054)"/>
</clipPath>
</defs>
</svg>
