<svg width="34" height="35" viewBox="0 0 34 35" fill="none" xmlns="http://www.w3.org/2000/svg">
<g clip-path="url(#clip0_211_2072)">
<path d="M30.0806 9.03323C30.0806 9.35759 30.3468 9.62054 30.6752 9.62054H31.2697C31.5981 9.62054 31.8643 9.35759 31.8643 9.03323C31.8643 8.70887 31.5981 8.44592 31.2697 8.44592H30.6752C30.3468 8.44592 30.0806 8.70887 30.0806 9.03323Z" fill="#212326"/>
<path d="M12.8384 27.2398H15.7267L14.8858 26.4092C14.6628 26.1889 14.3604 26.0652 14.045 26.0652H12.8384C8.24126 26.0652 4.51456 22.3839 4.51456 17.8429C4.51456 13.3018 8.24126 9.62054 12.8384 9.62054H22.3513C26.9485 9.62054 30.6752 13.3018 30.6752 17.8429C30.6752 22.3839 26.9485 26.0652 22.3513 26.0652H18.7927C18.3197 26.0652 17.866 25.8795 17.5315 25.5491L16.5464 24.576C15.9889 24.0253 15.2327 23.7159 14.4443 23.7159H12.8384C9.55471 23.7159 6.8928 21.0865 6.8928 17.8429C6.8928 14.5992 9.55471 11.9698 12.8384 11.9698H22.3513C25.635 11.9698 28.2969 14.5992 28.2969 17.8429C28.2969 21.0865 25.635 23.7159 22.3513 23.7159H20.0664C19.5933 23.7159 19.1396 23.5303 18.8051 23.1999L17.82 22.2268C17.2625 21.6761 16.5063 21.3667 15.7179 21.3667H12.8384C10.8682 21.3667 9.27103 19.789 9.27103 17.8429C9.27103 15.8967 10.8682 14.319 12.8384 14.319H22.3513C24.3215 14.319 25.9187 15.8967 25.9187 17.8429C25.9187 19.7653 24.3602 21.3282 22.4233 21.366L22.4229 21.3667H21.5528C21.0797 21.3667 20.626 21.1811 20.2915 20.8507L19.3064 19.8776C18.849 19.4257 18.2578 19.1363 17.6247 19.047L17.5949 19.0175H12.8384C12.1817 19.0175 11.6493 18.4916 11.6493 17.8429C11.6493 17.1941 12.1817 16.6682 12.8384 16.6682H22.3513C23.0081 16.6682 23.5405 17.1941 23.5405 17.8429C23.5405 18.4916 23.0081 19.0175 22.3513 19.0175H19.9731L20.814 19.8481C21.0369 20.0683 21.3394 20.1921 21.6548 20.1921H22.3513C23.6648 20.1921 24.7296 19.1403 24.7296 17.8429C24.7296 16.5454 23.6648 15.4936 22.3513 15.4936H12.8384C11.5249 15.4936 10.4602 16.5454 10.4602 17.8429C10.4602 19.1403 11.5249 20.1921 12.8384 20.1921H17.2043C17.6774 20.1921 18.1311 20.3777 18.4656 20.7081L19.4507 21.6812C20.0082 22.2319 20.7643 22.5413 21.5528 22.5413H22.6486V22.5323C25.1371 22.3807 27.1078 20.3391 27.1078 17.8429C27.1078 15.248 24.9782 13.1444 22.3513 13.1444H12.8384C10.2115 13.1444 8.08191 15.248 8.08191 17.8429C8.08191 20.4378 10.2115 22.5413 12.8384 22.5413H15.7179C16.191 22.5413 16.6447 22.727 16.9792 23.0574L17.9643 24.0305C18.5218 24.5812 19.2779 24.8906 20.0664 24.8906H22.3513C26.2917 24.8906 29.4861 21.7352 29.4861 17.8429C29.4861 13.9505 26.2917 10.7952 22.3513 10.7952H12.8384C8.89798 10.7952 5.70368 13.9505 5.70368 17.8429C5.70368 21.7352 8.89798 24.8906 12.8384 24.8906H14.4443C14.9173 24.8906 15.371 25.0762 15.7055 25.4066L16.6907 26.3797C17.2482 26.9304 18.0043 27.2398 18.7927 27.2398H22.3513C27.6052 27.2398 31.8643 23.0326 31.8643 17.8429C31.8643 12.6531 27.6052 8.44592 22.3513 8.44592L12.8384 8.44592C7.58453 8.44593 3.32544 12.6531 3.32544 17.8429C3.32544 23.0326 7.58453 27.2398 12.8384 27.2398Z" fill="#212326"/>
</g>
<defs>
<clipPath id="clip0_211_2072">
<rect width="28.5388" height="18.7939" fill="white" transform="translate(3.32544 8.44592)"/>
</clipPath>
</defs>
</svg>
