<svg width="46" height="40" viewBox="0 0 46 40" fill="none" xmlns="http://www.w3.org/2000/svg">
<path d="M45.666 27.4136C45.666 34.3333 40.0564 39.9429 33.1367 39.9429L14.3428 39.9429C12.4207 39.9429 10.8625 38.3847 10.8625 36.4625L10.8625 12.7962C10.8625 8.95187 13.9789 5.83547 17.8232 5.83547L42.1856 5.83547C44.1078 5.83547 45.666 7.39367 45.666 9.31581L45.666 27.4136Z" fill="#E8F5E9"/>
<path d="M20.1283 17.4214C19.9607 17.4214 19.805 17.3753 19.6668 17.3012V17.3031C19.6668 17.5668 19.5643 17.8145 19.3783 17.9999C19.1924 18.1859 18.9449 18.2884 18.6815 18.2884C18.5115 18.2884 18.3539 18.2412 18.2141 18.1651C18.2 18.4063 18.1036 18.6318 17.9316 18.804C17.7456 18.99 17.4982 19.0925 17.2346 19.0925C16.7109 19.0925 16.2857 18.6808 16.2551 18.1649C16.093 18.2525 15.9099 18.2984 15.7209 18.2863C15.2058 18.2525 14.8024 17.8074 14.8024 17.2728V12.8412L14.2978 13.7154C14.1056 14.0498 13.7458 14.2574 13.3584 14.2574C13.1697 14.2574 12.9832 14.2078 12.8181 14.1132C12.6124 13.994 12.4653 13.8026 12.4042 13.5737C12.3427 13.3446 12.3745 13.105 12.4934 12.8996C12.4935 12.8996 14.1444 10.0408 14.2452 9.86514C14.2571 9.83874 14.2912 9.76216 14.3203 9.69689C14.348 9.63457 14.3718 9.57061 14.3946 9.50633C14.8924 8.10077 16.1252 7.22766 17.6119 7.22766C19.5426 7.22766 21.1133 8.93088 21.1133 11.0244L21.1135 16.4359C21.1135 16.6993 21.0112 16.9468 20.8254 17.1329C20.6394 17.3189 20.3919 17.4214 20.1282 17.4214L20.1283 17.4214ZM17.612 7.75121C16.3344 7.75121 15.3162 8.4728 14.888 9.68142C14.8606 9.75817 14.8321 9.83491 14.7988 9.9097C14.7022 10.1263 14.7022 10.1263 14.675 10.1575L14.6714 10.1544C14.5366 10.4087 14.1361 11.1022 12.9467 13.1617C12.8978 13.2461 12.8849 13.3442 12.9098 13.438C12.935 13.5318 12.9956 13.6108 13.0794 13.6592C13.3395 13.8086 13.6957 13.7122 13.8439 13.4539L14.8375 11.7336C14.8969 11.6311 15.0169 11.5808 15.1321 11.6119C15.2465 11.6426 15.3261 11.7464 15.3261 11.8648V17.2729C15.3261 17.5281 15.5186 17.7483 15.7552 17.7639C15.8917 17.7711 16.0189 17.7254 16.1145 17.6299C16.2015 17.543 16.2493 17.4272 16.2493 17.3034V13.7664C16.2493 13.6218 16.3666 13.5045 16.5112 13.5045C16.6559 13.5045 16.7731 13.6216 16.7731 13.7664L16.773 18.1074C16.773 18.3619 16.9801 18.569 17.2346 18.569C17.3583 18.569 17.4744 18.5211 17.5615 18.4342C17.6484 18.3471 17.6963 18.231 17.6963 18.1074V13.7664C17.6963 13.6218 17.8133 13.5045 17.9581 13.5045C18.1028 13.5045 18.22 13.6216 18.22 13.7664L18.2199 17.2627V17.3034C18.2199 17.5578 18.427 17.7649 18.6817 17.7649C18.8052 17.7649 18.9209 17.7168 19.0085 17.6296C19.0954 17.5428 19.1433 17.427 19.1433 17.3032V13.7662C19.1433 13.6216 19.2604 13.5044 19.4052 13.5044C19.5499 13.5044 19.6671 13.6214 19.6671 13.7662L19.6668 16.4361C19.6668 16.6907 19.8739 16.8979 20.1283 16.8979C20.2521 16.8979 20.3678 16.8498 20.4548 16.7631C20.542 16.6758 20.5897 16.5597 20.5897 16.4361L20.5899 11.0246C20.5899 9.21984 19.254 7.75126 17.6119 7.75126L17.612 7.75121Z" fill="#103E13"/>
<path d="M9.83859 21.1825L13.6389 18.9026C14.0971 18.6274 14.6867 18.7444 14.9806 19.169C15.0878 19.3236 15.1426 19.5038 15.1511 19.6873C15.2928 19.6134 15.4469 19.5732 15.6039 19.5732C15.6842 19.5732 15.7649 19.5832 15.8446 19.6031C16.1 19.6668 16.3151 19.8264 16.4504 20.0521C16.5859 20.278 16.6254 20.5429 16.5616 20.7979C16.5027 21.0339 16.3592 21.2325 16.1597 21.3688C16.2992 21.4511 16.4196 21.5634 16.5052 21.7064C16.6407 21.9324 16.6802 22.1971 16.6165 22.4525C16.5528 22.7075 16.3932 22.9226 16.1672 23.0583L16.1659 23.0591C16.303 23.1412 16.4212 23.2524 16.5059 23.3933C16.6415 23.6193 16.681 23.8841 16.6172 24.1394C16.5533 24.3946 16.3937 24.6098 16.168 24.7452L11.5278 27.529C10.6617 28.0484 9.66053 28.2277 8.70905 28.0333C7.74904 27.8372 6.95398 27.2854 6.47056 26.4795C5.70552 25.2044 5.82017 23.698 6.76919 22.5482C6.81265 22.4958 6.85545 22.4423 6.89432 22.3869C6.93548 22.3283 6.98353 22.2594 6.99993 22.2358C7.09816 22.0604 8.70104 19.1724 8.70088 19.1728C8.86274 18.8807 9.16612 18.7154 9.47901 18.7156C9.62497 18.7156 9.77305 18.7515 9.90967 18.8272C10.0746 18.9194 10.2132 19.0537 10.3101 19.2156C10.5094 19.5477 10.5164 19.9632 10.3288 20.2995L9.83859 21.1825ZM9.86138 19.4848C9.81055 19.4 9.74068 19.3324 9.65524 19.2846C9.47862 19.1868 9.25625 19.2505 9.15901 19.4264C8.01206 21.4927 7.62109 22.1969 7.4702 22.4475L7.47365 22.4483C7.46102 22.4903 7.46102 22.4903 7.32294 22.6876C7.27604 22.7543 7.22504 22.8184 7.17305 22.8816C6.357 23.8703 6.26225 25.1145 6.91935 26.2101C7.32638 26.8887 7.99909 27.354 8.81362 27.5203C9.63702 27.6877 10.5049 27.5319 11.2581 27.0799L15.8988 24.296C16.0048 24.2326 16.0795 24.1317 16.1094 24.0122C16.1392 23.8928 16.1207 23.7686 16.0571 23.6627C15.9262 23.4446 15.642 23.3729 15.4239 23.5043L13.1346 24.8777C13.0106 24.9522 12.8495 24.9122 12.7753 24.788C12.7008 24.664 12.741 24.5032 12.865 24.4287L15.1545 23.0553L15.898 22.6092C16.0039 22.5456 16.0789 22.4447 16.1087 22.3255C16.1386 22.206 16.12 22.0816 16.0564 21.9759C15.9254 21.7576 15.6412 21.6866 15.4232 21.8175L12.3902 23.637C12.2659 23.7116 12.1053 23.6712 12.0309 23.5473C11.9564 23.4233 11.9968 23.2624 12.1206 23.188L15.8431 20.9549C15.949 20.8913 16.0238 20.7906 16.0536 20.671C16.0835 20.5516 16.0649 20.4275 16.0015 20.3215C15.938 20.2158 15.8372 20.141 15.7176 20.1111C15.5974 20.0813 15.4738 20.0998 15.3681 20.1631L14.679 20.5766C14.6789 20.5766 14.6789 20.5767 14.6787 20.5767H14.6786L11.6457 22.3962C11.5214 22.471 11.3607 22.4307 11.2864 22.3065C11.2119 22.1825 11.2523 22.0217 11.3761 21.9472L14.4091 20.1277C14.5151 20.0641 14.59 19.9632 14.6198 19.844C14.6526 19.7131 14.6277 19.5793 14.55 19.4671C14.4152 19.2722 14.1269 19.2203 13.9083 19.3517L9.27095 22.1337C9.16944 22.1944 9.0394 22.1796 8.95428 22.0974C8.86901 22.0151 8.84982 21.8857 8.90722 21.7822L9.8715 20.0449C9.96826 19.8712 9.96448 19.6567 9.86133 19.4849L9.86138 19.4848Z" fill="#103E13"/>
<path d="M27.9983 26.4793C27.515 27.2853 26.7202 27.837 25.76 28.0332C24.8084 28.2272 23.8075 28.0482 22.9413 27.5289L18.3006 24.745C18.0748 24.6095 17.9151 24.3943 17.8511 24.1388C17.7876 23.8838 17.8273 23.619 17.9626 23.3933C18.0471 23.2523 18.1655 23.1411 18.3027 23.0589L18.3014 23.0581C18.0756 22.9226 17.9159 22.7075 17.8523 22.4523C17.7883 22.1971 17.828 21.9321 17.9634 21.7062C18.0507 21.561 18.1702 21.4475 18.3067 21.367C18.1086 21.2307 17.9659 21.0328 17.9072 20.798C17.8432 20.5426 17.8829 20.2778 18.0184 20.0521C18.1537 19.8263 18.369 19.6667 18.6242 19.6029C18.7039 19.5829 18.7847 19.5731 18.8648 19.5731C19.0219 19.5732 19.176 19.6131 19.3177 19.6872C19.3264 19.5037 19.381 19.3235 19.4883 19.1688C19.7823 18.7446 20.3714 18.6272 20.8302 18.9025L24.6304 21.182L24.1406 20.2997C23.9527 19.9629 23.9595 19.5473 24.1588 19.2151C24.2559 19.0534 24.3946 18.9191 24.5604 18.8261C24.6967 18.7506 24.8443 18.7149 24.9899 18.7149C25.3026 18.715 25.6063 18.88 25.768 19.1721C26.3315 20.1874 27.3948 22.1022 27.4696 22.2358C27.4855 22.259 27.5336 22.3278 27.5747 22.3864C27.6139 22.442 27.6562 22.4951 27.7 22.5479C28.6489 23.6981 28.7633 25.2044 27.9983 26.4793L27.9983 26.4793ZM27.296 22.8817C27.2438 22.8185 27.1927 22.7541 27.1461 22.6877C27.0044 22.4866 27.0008 22.4814 26.9901 22.4287C26.8245 22.1547 26.4204 21.4272 25.3097 19.4262C25.2123 19.2505 24.9909 19.1864 24.8146 19.2838C24.7279 19.3324 24.6582 19.4001 24.6073 19.4849C24.5044 19.6566 24.5004 19.8711 24.5977 20.0452L25.5616 21.7821C25.6192 21.8857 25.6 22.015 25.5149 22.0973C25.4299 22.1798 25.3 22.1942 25.198 22.1335L20.5607 19.3515C20.3421 19.2205 20.054 19.2718 19.9188 19.467C19.8411 19.5792 19.8163 19.713 19.8488 19.8437C19.8787 19.9631 19.9536 20.0638 20.0597 20.1274C20.06 20.1276 20.0602 20.1279 20.0605 20.128L23.0926 21.947C23.2166 22.0215 23.2568 22.1822 23.1823 22.3064C23.1078 22.4302 22.9473 22.4707 22.823 22.3961L19.1005 20.163C18.9949 20.0997 18.8706 20.081 18.7512 20.111C18.6315 20.1408 18.5308 20.2156 18.4673 20.3217C18.4037 20.4275 18.3854 20.5516 18.4149 20.671C18.4447 20.7904 18.5197 20.8913 18.6256 20.9549L19.35 21.3893L22.3479 23.188C22.4719 23.2625 22.5121 23.4232 22.4376 23.5473C22.3632 23.6711 22.2026 23.7115 22.0783 23.637L19.0456 21.8175C18.8275 21.6863 18.5434 21.7575 18.4123 21.9759C18.3486 22.0819 18.3303 22.206 18.3598 22.3254C18.3896 22.4448 18.4646 22.5455 18.5707 22.6093L19.3142 23.0553L21.6034 24.4288C21.7273 24.5032 21.7675 24.6639 21.6931 24.7881C21.6186 24.9119 21.4581 24.9526 21.3338 24.8778L19.0446 23.5043C18.939 23.441 18.8152 23.4223 18.6951 23.4524C18.5757 23.4822 18.4747 23.557 18.4113 23.6628C18.3478 23.7687 18.3293 23.893 18.3588 24.0122C18.3886 24.1316 18.4636 24.2323 18.5697 24.2961L23.2104 27.08C23.9635 27.5318 24.8319 27.6882 25.6549 27.5203C26.4692 27.354 27.142 26.8888 27.549 26.2102C28.2068 25.1144 28.1121 23.87 27.2963 22.8816L27.296 22.8817Z" fill="#103E13"/>
</svg>
