<svg width="46" height="40" viewBox="0 0 46 40" fill="none" xmlns="http://www.w3.org/2000/svg">
<path d="M45.9187 27.4136C45.9187 34.3333 40.3092 39.9429 33.3894 39.9429L14.5956 39.9429C12.6734 39.9429 11.1152 38.3847 11.1152 36.4625L11.1152 12.7962C11.1152 8.95187 14.2316 5.83547 18.0759 5.83547L42.4384 5.83547C44.3605 5.83547 45.9187 7.39367 45.9187 9.31581L45.9187 27.4136Z" fill="#E8F5E9"/>
<path d="M17.3729 7.92371C14.8871 7.92371 12.8634 9.96589 12.8634 12.4623C12.8634 14.0416 13.6743 15.436 14.8989 16.2488C13.4199 16.7434 12.1401 17.6676 11.2014 18.8768C10.6824 18.4776 10.1025 18.1566 9.47742 17.9266C10.4254 17.2228 11.0448 16.0923 11.0448 14.8217C11.0448 12.7045 9.33245 10.9712 7.22801 10.9712C5.12358 10.9712 3.41119 12.7045 3.41119 14.8217C3.41119 16.093 4.03118 17.2241 4.97993 17.9278C2.46811 18.8547 0.674194 21.2815 0.674194 24.1374V26.1436C0.674451 26.2966 0.735627 26.4431 0.844097 26.5508C0.952566 26.6587 1.09934 26.7189 1.25228 26.7184H10.0541C10.0754 26.7207 10.0967 26.722 10.1181 26.7217H24.6282C24.6495 26.722 24.6711 26.7207 24.6922 26.7184H33.4947C33.8111 26.7171 34.0673 26.4603 34.0681 26.1436V24.1374C34.0681 21.2815 32.2773 18.8547 29.7668 17.9276C30.7155 17.2241 31.3355 16.0928 31.3355 14.8215C31.3355 12.7042 29.6231 10.971 27.5187 10.971C25.4143 10.971 23.7019 12.7042 23.7019 14.8215C23.7019 16.0921 24.3216 17.2227 25.2696 17.9263C24.6432 18.1569 24.063 18.4789 23.5433 18.8791C22.6051 17.6692 21.3271 16.7436 19.8481 16.2488C21.0723 15.436 21.8836 14.0416 21.8836 12.4623C21.8836 9.96589 19.8589 7.92371 17.373 7.92371H17.3729ZM17.3729 9.07525C19.2321 9.07525 20.7309 10.5841 20.7309 12.4623C20.7309 14.3259 19.2554 15.82 17.4168 15.844C17.4022 15.844 17.3878 15.8419 17.3729 15.8419C17.358 15.8419 17.3438 15.844 17.3289 15.844C15.4903 15.8203 14.0159 14.3259 14.0159 12.4623C14.0159 10.5838 15.5134 9.07525 17.3726 9.07525H17.3729ZM7.22808 12.1227C8.70325 12.1227 9.89335 13.32 9.89335 14.8217C9.89335 16.3133 8.71864 17.5054 7.25736 17.5216C7.24759 17.5216 7.23808 17.5206 7.22806 17.5206C7.21829 17.5206 7.20878 17.5216 7.19876 17.5216C5.73748 17.5054 4.56277 16.313 4.56277 14.8217C4.56277 13.3201 5.75287 12.1227 7.22804 12.1227H7.22808ZM27.5184 12.1227C28.9935 12.1227 30.1836 13.32 30.1836 14.8217C30.1836 16.3133 29.0089 17.5054 27.5476 17.5216C27.5379 17.5216 27.5284 17.5206 27.5183 17.5206C27.5086 17.5206 27.4991 17.5216 27.489 17.5216C26.0277 17.5054 24.853 16.313 24.853 14.8217C24.853 13.3201 26.0431 12.1227 27.5183 12.1227H27.5184ZM17.3288 16.9955C17.3435 16.9957 17.3578 16.9975 17.3728 16.9975C17.3874 16.9975 17.4018 16.9955 17.4167 16.9955C21.104 17.0191 24.0549 19.9954 24.0549 23.7212L24.0546 25.5698H10.6914V23.7212C10.6914 19.9951 13.6415 17.0192 17.3283 16.9955H17.3288ZM7.18399 18.6745C7.19864 18.6747 7.21304 18.6765 7.22795 18.6765C7.24286 18.6765 7.25699 18.6745 7.2719 18.6745C8.51906 18.6845 9.65725 19.1145 10.5636 19.834C9.91503 20.9815 9.53999 22.3059 9.53999 23.7215V25.5657H1.82528V24.1374C1.82528 21.1094 4.20602 18.6981 7.18386 18.6742L7.18399 18.6745ZM27.4743 18.6745C27.4892 18.6747 27.5033 18.6765 27.5182 18.6765C27.5331 18.6765 27.5473 18.6745 27.5622 18.6745C30.54 18.6981 32.9208 21.1097 32.9208 24.1376V25.5657H25.2021L25.2018 23.7215C25.2018 22.3067 24.8278 20.9832 24.1806 19.836C25.0871 19.1156 26.2261 18.6845 27.4743 18.6745H27.4743Z" fill="#103E13"/>
</svg>
